<svg version="1.1" xmlns="http://www.w3.org/2000/svg" width="1024" height="1024" viewBox="0 0 1024 1024">
<title></title>
<g id="icomoon-ignore">
</g>
<path fill="#e53333" d="M565.25 513.839l444.042-444.042c14.708-14.708 14.708-38.541 0-53.25s-38.541-14.708-53.25 0l-444.042 444.042-444.042-444.036c-14.708-14.708-38.541-14.708-53.25 0s-14.708 38.541 0 53.25l444.042 444.036-444.042 444.042c-14.708 14.708-14.708 38.541 0 53.25 7.354 7.354 16.991 11.031 26.622 11.031s19.268-3.677 26.622-11.031l444.048-444.042 444.042 444.042c7.354 7.354 16.991 11.031 26.622 11.031s19.268-3.677 26.622-11.031c14.708-14.708 14.708-38.541 0-53.25l-444.036-444.042z"></path>
</svg>
